<?xml version="1.0" encoding="UTF-8"?>
<svg version="1.1" xmlns="http://www.w3.org/2000/svg" width="60" height="60">
<path d="M0 0 C7.19106227 1.07276503 14.13486354 0.99483927 21.3125 -0.125 C24.83258308 -0.48146411 25.64282378 -0.48546213 28.8125 1.375 C32.40010894 6.96744924 35.09605958 13.21170713 34.7890625 19.94140625 C33.9375 22.6875 33.9375 22.6875 32.43310547 23.83813477 C28.72114914 25.10147815 25.03482006 25.01290878 21.15625 25.0234375 C20.30575073 25.0300943 19.45525146 25.0367511 18.57897949 25.04360962 C16.78363199 25.05371921 14.98824703 25.05842716 13.19287109 25.05810547 C10.44696332 25.06248491 7.70265544 25.09883789 4.95703125 25.13671875 C3.21094299 25.14258604 1.46484711 25.14655602 -0.28125 25.1484375 C-1.10113403 25.16280853 -1.92101807 25.17717957 -2.76574707 25.19198608 C-6.5397185 25.16173291 -8.46466636 25.11022106 -11.61132812 22.88525391 C-13.44389822 20.10988446 -13.27327478 18.19727737 -12.67578125 14.98046875 C-9.84746425 4.40580584 -9.84746425 4.40580584 -6.1796875 0.875 C-3.69737837 -0.51729147 -2.75738559 -0.51024518 0 0 Z " fill="#000000" transform="translate(13.0625,31.3125)"/>
<path d="M0 0 C3.69462152 2.27947979 6.40626937 4.92125811 8 9 C8.24137178 13.49756077 7.55333627 17.10321363 5.1875 20.9375 C1.20289554 24.69441277 -2.29734044 25.55482108 -7.67578125 25.45703125 C-11.72458526 24.66087987 -14.43498094 22.13756796 -17 19 C-18.75267445 13.74197664 -18.77111783 9.6347698 -16.4375 4.6875 C-11.69675098 -0.53947968 -6.75866519 -1.96615715 0 0 Z " fill="#000000" transform="translate(29,5)"/>
<path d="M0 0 C2.4375 0.375 2.4375 0.375 5 1 C5.33 1.66 5.66 2.32 6 3 C8.52733235 3.65555119 8.52733235 3.65555119 11 4 C11.625 6.3125 11.625 6.3125 12 9 C11.01 10.485 11.01 10.485 10 12 C10.66 12 11.32 12 12 12 C11.125 16.875 11.125 16.875 10 18 C8.33382885 18.04063832 6.66611905 18.042721 5 18 C5 18.99 5 19.98 5 21 C2.125 21.1875 2.125 21.1875 -1 21 C-1.66 20.01 -2.32 19.02 -3 18 C-5.05925139 17.27617533 -5.05925139 17.27617533 -7 17 C-7.93065133 14.39417629 -8.14917407 13.35801776 -7.0625 10.75 C-6.711875 10.1725 -6.36125 9.595 -6 9 C-6.66 9 -7.32 9 -8 9 C-7.6875 7.125 -7.6875 7.125 -7 5 C-4 3 -4 3 -2 3 C-1.34 2.01 -0.68 1.02 0 0 Z M1 8 C0.67 9.32 0.34 10.64 0 12 C1.32 12.33 2.64 12.66 4 13 C3.67 11.35 3.34 9.7 3 8 C2.34 8 1.68 8 1 8 Z " fill="#000000" transform="translate(48,12)"/>
</svg>
